<?xml version="1.0" encoding="utf-8"?>
<!-- Generator: $$$/GeneralStr/196=Adobe Illustrator 27.6.0, SVG Export Plug-In . SVG Version: 6.00 Build 0)  -->
<svg version="1.1" id="图层_1" xmlns="http://www.w3.org/2000/svg" xmlns:xlink="http://www.w3.org/1999/xlink" x="0px" y="0px"
	 viewBox="0 0 128 128" style="enable-background:new 0 0 128 128;" xml:space="preserve">
<style type="text/css">
	.st0{fill:#FFFFFF;}
	.st1{fill:#409EFF;}
</style>
<rect x="26" y="26" class="st0" width="83" height="83"/>
<path class="st1" d="M48.2,92.6l44.7-28.7L48.2,35.1V92.6z M64.1,127.7c-8.8,0-17.1-1.7-24.9-5c-7.8-3.4-14.5-7.9-20.3-13.6
	S8.7,96.5,5.3,88.8s-5-16.1-5-24.9C0.3,55,2,46.7,5.3,39S13.2,24.4,19,18.7S31.5,8.4,39.2,5s16.1-5,24.9-5C73,0,81.3,1.7,89,5
	c7.8,3.4,14.5,7.9,20.3,13.6c5.7,5.7,10.3,12.5,13.7,20.3c3.4,7.8,5,16.1,5,24.9c0,8.8-1.7,17.1-5,24.9c-3.3,7.8-7.9,14.5-13.6,20.3
	c-5.8,5.7-12.5,10.3-20.3,13.7C81.3,126,73,127.7,64.1,127.7"/>
</svg>
